<svg xmlns="http://www.w3.org/2000/svg" xmlns:xlink="http://www.w3.org/1999/xlink" width="2068.005" height="3208" viewBox="0 0 2068.005 3208">
  <defs>
    <filter id="패스_994" x="227.736" y="1089.355" width="148.437" height="155.289" filterUnits="userSpaceOnUse">
      <feOffset input="SourceAlpha"/>
      <feGaussianBlur stdDeviation="11" result="blur"/>
      <feFlood flood-color="#dceaf7" flood-opacity="0.749"/>
      <feComposite operator="in" in2="blur"/>
      <feComposite in="SourceGraphic"/>
    </filter>
    <filter id="패스_1004" x="89.362" y="2436.855" width="148.437" height="155.289" filterUnits="userSpaceOnUse">
      <feOffset input="SourceAlpha"/>
      <feGaussianBlur stdDeviation="11" result="blur-2"/>
      <feFlood flood-color="#dceaf7" flood-opacity="0.749"/>
      <feComposite operator="in" in2="blur-2"/>
      <feComposite in="SourceGraphic"/>
    </filter>
    <filter id="패스_996" x="1730.533" y="1575.936" width="131.28" height="136.705" filterUnits="userSpaceOnUse">
      <feOffset input="SourceAlpha"/>
      <feGaussianBlur stdDeviation="11" result="blur-3"/>
      <feFlood flood-color="#dceaf7" flood-opacity="0.749"/>
      <feComposite operator="in" in2="blur-3"/>
      <feComposite in="SourceGraphic"/>
    </filter>
    <filter id="패스_992" x="1683.736" y="89.855" width="148.437" height="155.289" filterUnits="userSpaceOnUse">
      <feOffset input="SourceAlpha"/>
      <feGaussianBlur stdDeviation="11" result="blur-4"/>
      <feFlood flood-color="#dceaf7" flood-opacity="0.749"/>
      <feComposite operator="in" in2="blur-4"/>
      <feComposite in="SourceGraphic"/>
    </filter>
    <filter id="패스_1007" x="303.041" y="2605.873" width="108.705" height="112.254" filterUnits="userSpaceOnUse">
      <feOffset input="SourceAlpha"/>
      <feGaussianBlur stdDeviation="11" result="blur-5"/>
      <feFlood flood-color="#dceaf7" flood-opacity="0.749"/>
      <feComposite operator="in" in2="blur-5"/>
      <feComposite in="SourceGraphic"/>
    </filter>
    <filter id="패스_1011" x="1895.041" y="3075.873" width="108.705" height="112.254" filterUnits="userSpaceOnUse">
      <feOffset input="SourceAlpha"/>
      <feGaussianBlur stdDeviation="11" result="blur-6"/>
      <feFlood flood-color="#dceaf7" flood-opacity="0.749"/>
      <feComposite operator="in" in2="blur-6"/>
      <feComposite in="SourceGraphic"/>
    </filter>
    <filter id="패스_995" x="401.361" y="1029.953" width="50.047" height="50.047" filterUnits="userSpaceOnUse">
      <feOffset input="SourceAlpha"/>
      <feGaussianBlur stdDeviation="5" result="blur-7"/>
      <feFlood flood-color="#fff" flood-opacity="0.788"/>
      <feComposite operator="in" in2="blur-7"/>
      <feComposite in="SourceGraphic"/>
    </filter>
    <filter id="패스_1003" x="212.955" y="2366" width="50.047" height="50.047" filterUnits="userSpaceOnUse">
      <feOffset input="SourceAlpha"/>
      <feGaussianBlur stdDeviation="5" result="blur-8"/>
      <feFlood flood-color="#fff" flood-opacity="0.788"/>
      <feComposite operator="in" in2="blur-8"/>
      <feComposite in="SourceGraphic"/>
    </filter>
    <filter id="패스_1010" x="1871.955" y="3020" width="50.047" height="50.047" filterUnits="userSpaceOnUse">
      <feOffset input="SourceAlpha"/>
      <feGaussianBlur stdDeviation="5" result="blur-9"/>
      <feFlood flood-color="#fff" flood-opacity="0.788"/>
      <feComposite operator="in" in2="blur-9"/>
      <feComposite in="SourceGraphic"/>
    </filter>
    <filter id="패스_1012" x="342.394" y="3140.127" width="50.046" height="50.047" filterUnits="userSpaceOnUse">
      <feOffset input="SourceAlpha"/>
      <feGaussianBlur stdDeviation="5" result="blur-10"/>
      <feFlood flood-color="#fff" flood-opacity="0.788"/>
      <feComposite operator="in" in2="blur-10"/>
      <feComposite in="SourceGraphic"/>
    </filter>
    <filter id="패스_993" x="1775.746" y="219.977" width="50.047" height="50.047" filterUnits="userSpaceOnUse">
      <feOffset input="SourceAlpha"/>
      <feGaussianBlur stdDeviation="5" result="blur-11"/>
      <feFlood flood-color="#fff" flood-opacity="0.788"/>
      <feComposite operator="in" in2="blur-11"/>
      <feComposite in="SourceGraphic"/>
    </filter>
    <filter id="패스_1014" x="1973.699" y="3157.953" width="50.047" height="50.047" filterUnits="userSpaceOnUse">
      <feOffset input="SourceAlpha"/>
      <feGaussianBlur stdDeviation="5" result="blur-12"/>
      <feFlood flood-color="#fff" flood-opacity="0.788"/>
      <feComposite operator="in" in2="blur-12"/>
      <feComposite in="SourceGraphic"/>
    </filter>
    <filter id="패스_1013" x="73.746" y="0" width="50.047" height="50.047" filterUnits="userSpaceOnUse">
      <feOffset input="SourceAlpha"/>
      <feGaussianBlur stdDeviation="5" result="blur-13"/>
      <feFlood flood-color="#fff" flood-opacity="0.788"/>
      <feComposite operator="in" in2="blur-13"/>
      <feComposite in="SourceGraphic"/>
    </filter>
    <filter id="패스_998" x="1545.272" y="1817.127" width="93.474" height="97.744" filterUnits="userSpaceOnUse">
      <feOffset input="SourceAlpha"/>
      <feGaussianBlur stdDeviation="10" result="blur-14"/>
      <feFlood flood-color="#fff" flood-opacity="0.702"/>
      <feComposite operator="in" in2="blur-14"/>
      <feComposite in="SourceGraphic"/>
    </filter>
    <filter id="패스_1002" x="782.272" y="2131.129" width="93.474" height="97.744" filterUnits="userSpaceOnUse">
      <feOffset input="SourceAlpha"/>
      <feGaussianBlur stdDeviation="10" result="blur-15"/>
      <feFlood flood-color="#fff" flood-opacity="0.702"/>
      <feComposite operator="in" in2="blur-15"/>
      <feComposite in="SourceGraphic"/>
    </filter>
    <filter id="패스_999" x="712.816" y="1947" width="75.965" height="78.002" filterUnits="userSpaceOnUse">
      <feOffset input="SourceAlpha"/>
      <feGaussianBlur stdDeviation="10" result="blur-16"/>
      <feFlood flood-color="#fff" flood-opacity="0.702"/>
      <feComposite operator="in" in2="blur-16"/>
      <feComposite in="SourceGraphic"/>
    </filter>
    <filter id="패스_1000" x="1118.746" y="2091" width="75.965" height="78.002" filterUnits="userSpaceOnUse">
      <feOffset input="SourceAlpha"/>
      <feGaussianBlur stdDeviation="10" result="blur-17"/>
      <feFlood flood-color="#fff" flood-opacity="0.702"/>
      <feComposite operator="in" in2="blur-17"/>
      <feComposite in="SourceGraphic"/>
    </filter>
    <filter id="패스_1005" x="1568.746" y="2526" width="75.965" height="78.002" filterUnits="userSpaceOnUse">
      <feOffset input="SourceAlpha"/>
      <feGaussianBlur stdDeviation="10" result="blur-18"/>
      <feFlood flood-color="#fff" flood-opacity="0.702"/>
      <feComposite operator="in" in2="blur-18"/>
      <feComposite in="SourceGraphic"/>
    </filter>
    <filter id="패스_1009" x="401.147" y="2662.322" width="77.163" height="79.354" filterUnits="userSpaceOnUse">
      <feOffset input="SourceAlpha"/>
      <feGaussianBlur stdDeviation="10" result="blur-19"/>
      <feFlood flood-color="#fff" flood-opacity="0.702"/>
      <feComposite operator="in" in2="blur-19"/>
      <feComposite in="SourceGraphic"/>
    </filter>
    <filter id="패스_1001" x="612.746" y="2048.531" width="71.474" height="72.938" filterUnits="userSpaceOnUse">
      <feOffset input="SourceAlpha"/>
      <feGaussianBlur stdDeviation="10" result="blur-20"/>
      <feFlood flood-color="#fff" flood-opacity="0.702"/>
      <feComposite operator="in" in2="blur-20"/>
      <feComposite in="SourceGraphic"/>
    </filter>
    <filter id="패스_1008" x="1520.746" y="2608.875" width="71.474" height="72.938" filterUnits="userSpaceOnUse">
      <feOffset input="SourceAlpha"/>
      <feGaussianBlur stdDeviation="10" result="blur-21"/>
      <feFlood flood-color="#fff" flood-opacity="0.702"/>
      <feComposite operator="in" in2="blur-21"/>
      <feComposite in="SourceGraphic"/>
    </filter>
    <filter id="패스_1006" x="433.746" y="2580" width="71.474" height="72.938" filterUnits="userSpaceOnUse">
      <feOffset input="SourceAlpha"/>
      <feGaussianBlur stdDeviation="10" result="blur-22"/>
      <feFlood flood-color="#fff" flood-opacity="0.702"/>
      <feComposite operator="in" in2="blur-22"/>
      <feComposite in="SourceGraphic"/>
    </filter>
    <filter id="패스_997" x="1592.688" y="1722" width="72.643" height="74.256" filterUnits="userSpaceOnUse">
      <feOffset input="SourceAlpha"/>
      <feGaussianBlur stdDeviation="10" result="blur-23"/>
      <feFlood flood-color="#fff" flood-opacity="0.702"/>
      <feComposite operator="in" in2="blur-23"/>
      <feComposite in="SourceGraphic"/>
    </filter>
    <filter id="패스_1015" x="0" y="914" width="72.643" height="74.256" filterUnits="userSpaceOnUse">
      <feOffset input="SourceAlpha"/>
      <feGaussianBlur stdDeviation="10" result="blur-24"/>
      <feFlood flood-color="#fff" flood-opacity="0.702"/>
      <feComposite operator="in" in2="blur-24"/>
      <feComposite in="SourceGraphic"/>
    </filter>
  </defs>
  <g id="그룹_1307" data-name="그룹 1307" transform="translate(11711.746 -20244)">
    <g id="그룹_1305" data-name="그룹 1305" transform="translate(-9955.916 20868.816)">
      <ellipse id="타원_1351" data-name="타원 1351" cx="75.216" cy="200.367" rx="75.216" ry="200.367" transform="translate(-115.829 332.666) rotate(-66.525)" fill="none" stroke="#95b0cd" stroke-miterlimit="10" stroke-width="0.779"/>
      <ellipse id="타원_1352" data-name="타원 1352" cx="75.216" cy="200.367" rx="75.216" ry="200.367" transform="translate(-115.829 397.516) rotate(-66.525)" fill="none" stroke="#95b0cd" stroke-miterlimit="10" stroke-width="0.779"/>
      <ellipse id="타원_1353" data-name="타원 1353" cx="75.216" cy="200.367" rx="75.216" ry="200.367" transform="translate(-115.829 448.867) rotate(-66.525)" fill="none" stroke="#95b0cd" stroke-miterlimit="10" stroke-width="0.779"/>
    </g>
    <g transform="matrix(1, 0, 0, 1, -11711.75, 20244)" filter="url(#패스_994)">
      <path id="패스_994-2" data-name="패스 994" d="M1976.518,555.249c-22.765,0-41.26,20.033-41.26,44.69,0-24.656-18.413-44.69-41.177-44.69,22.764,0,41.177-19.943,41.177-44.6C1935.258,535.306,1953.753,555.249,1976.518,555.249Z" transform="translate(-1633.34 611.71)" fill="#dceaf7"/>
    </g>
    <g transform="matrix(1, 0, 0, 1, -11711.75, 20244)" filter="url(#패스_1004)">
      <path id="패스_1004-2" data-name="패스 1004" d="M1976.518,555.249c-22.765,0-41.26,20.033-41.26,44.69,0-24.656-18.413-44.69-41.177-44.69,22.764,0,41.177-19.943,41.177-44.6C1935.258,535.306,1953.753,555.249,1976.518,555.249Z" transform="translate(-1771.72 1959.21)" fill="#dceaf7"/>
    </g>
    <g transform="matrix(1, 0, 0, 1, -11711.75, 20244)" filter="url(#패스_996)">
      <path id="패스_996-2" data-name="패스 996" d="M1959.361,545.967c-18.027,0-32.673,15.864-32.673,35.389,0-19.525-14.581-35.389-32.607-35.389,18.027,0,32.607-15.792,32.607-35.317C1926.688,530.175,1941.334,545.967,1959.361,545.967Z" transform="translate(-130.55 1098.29)" fill="#dceaf7"/>
    </g>
    <g transform="matrix(1, 0, 0, 1, -11711.75, 20244)" filter="url(#패스_992)">
      <path id="패스_992-2" data-name="패스 992" d="M1976.518,555.249c-22.765,0-41.26,20.033-41.26,44.69,0-24.656-18.413-44.69-41.177-44.69,22.764,0,41.177-19.943,41.177-44.6C1935.258,535.306,1953.753,555.249,1976.518,555.249Z" transform="translate(-177.34 -387.79)" fill="#dceaf7"/>
    </g>
    <g transform="matrix(1, 0, 0, 1, -11711.75, 20244)" filter="url(#패스_1007)">
      <path id="패스_1007-2" data-name="패스 1007" d="M1936.786,533.754c-11.793,0-21.374,10.378-21.374,23.151,0-12.773-9.538-23.151-21.331-23.151,11.793,0,21.331-10.331,21.331-23.1C1915.412,523.423,1924.993,533.754,1936.786,533.754Z" transform="translate(-1558.04 2128.22)" fill="#dceaf7"/>
    </g>
    <g transform="matrix(1, 0, 0, 1, -11711.75, 20244)" filter="url(#패스_1011)">
      <path id="패스_1011-2" data-name="패스 1011" d="M1936.786,533.754c-11.793,0-21.374,10.378-21.374,23.151,0-12.773-9.538-23.151-21.331-23.151,11.793,0,21.331-10.331,21.331-23.1C1915.412,523.423,1924.993,533.754,1936.786,533.754Z" transform="translate(33.96 2598.22)" fill="#dceaf7"/>
    </g>
    <g transform="matrix(1, 0, 0, 1, -11711.75, 20244)" filter="url(#패스_995)">
      <path id="패스_995-2" data-name="패스 995" d="M1812.656,612.818a10.041,10.041,0,0,0-10.034,10.034,10.024,10.024,0,0,0-10.013-10.034,10.006,10.006,0,0,0,10.013-10.013A10.023,10.023,0,0,0,1812.656,612.818Z" transform="translate(-1376.25 442.15)" fill="#dceaf7"/>
    </g>
    <g transform="matrix(1, 0, 0, 1, -11711.75, 20244)" filter="url(#패스_1003)">
      <path id="패스_1003-2" data-name="패스 1003" d="M1812.656,612.818a10.041,10.041,0,0,0-10.034,10.034,10.024,10.024,0,0,0-10.013-10.034,10.006,10.006,0,0,0,10.013-10.013A10.023,10.023,0,0,0,1812.656,612.818Z" transform="translate(-1564.65 1778.2)" fill="#dceaf7"/>
    </g>
    <g transform="matrix(1, 0, 0, 1, -11711.75, 20244)" filter="url(#패스_1010)">
      <path id="패스_1010-2" data-name="패스 1010" d="M1812.656,612.818a10.041,10.041,0,0,0-10.034,10.034,10.024,10.024,0,0,0-10.013-10.034,10.006,10.006,0,0,0,10.013-10.013A10.023,10.023,0,0,0,1812.656,612.818Z" transform="translate(94.35 2432.2)" fill="#dceaf7"/>
    </g>
    <g transform="matrix(1, 0, 0, 1, -11711.75, 20244)" filter="url(#패스_1012)">
      <path id="패스_1012-2" data-name="패스 1012" d="M1812.656,612.818a10.041,10.041,0,0,0-10.034,10.034,10.024,10.024,0,0,0-10.013-10.034,10.006,10.006,0,0,0,10.013-10.013A10.023,10.023,0,0,0,1812.656,612.818Z" transform="translate(-1435.22 2552.32)" fill="#dceaf7"/>
    </g>
    <g transform="matrix(1, 0, 0, 1, -11711.75, 20244)" filter="url(#패스_993)">
      <path id="패스_993-2" data-name="패스 993" d="M1812.656,612.818a10.041,10.041,0,0,0-10.034,10.034,10.024,10.024,0,0,0-10.013-10.034,10.006,10.006,0,0,0,10.013-10.013A10.023,10.023,0,0,0,1812.656,612.818Z" transform="translate(-1.86 -367.83)" fill="#dceaf7"/>
    </g>
    <g transform="matrix(1, 0, 0, 1, -11711.75, 20244)" filter="url(#패스_1014)">
      <path id="패스_1014-2" data-name="패스 1014" d="M1812.656,612.818a10.041,10.041,0,0,0-10.034,10.034,10.024,10.024,0,0,0-10.013-10.034,10.006,10.006,0,0,0,10.013-10.013A10.023,10.023,0,0,0,1812.656,612.818Z" transform="translate(196.09 2570.15)" fill="#dceaf7"/>
    </g>
    <g transform="matrix(1, 0, 0, 1, -11711.75, 20244)" filter="url(#패스_1013)">
      <path id="패스_1013-2" data-name="패스 1013" d="M1812.656,612.818a10.041,10.041,0,0,0-10.034,10.034,10.024,10.024,0,0,0-10.013-10.034,10.006,10.006,0,0,0,10.013-10.013A10.023,10.023,0,0,0,1812.656,612.818Z" transform="translate(-1703.86 -587.8)" fill="#dceaf7"/>
    </g>
    <g transform="matrix(1, 0, 0, 1, -11711.75, 20244)" filter="url(#패스_998)">
      <path id="패스_998-2" data-name="패스 998" d="M1522.443,361.22c-9.244,0-16.754,8.469-16.754,18.892,0-10.423-7.476-18.892-16.72-18.892,9.243,0,16.72-8.43,16.72-18.853C1505.69,352.79,1513.2,361.22,1522.443,361.22Z" transform="translate(86.3 1504.76)" fill="#fff"/>
    </g>
    <g transform="matrix(1, 0, 0, 1, -11711.75, 20244)" filter="url(#패스_1002)">
      <path id="패스_1002-2" data-name="패스 1002" d="M1522.443,361.22c-9.244,0-16.754,8.469-16.754,18.892,0-10.423-7.476-18.892-16.72-18.892,9.243,0,16.72-8.43,16.72-18.853C1505.69,352.79,1513.2,361.22,1522.443,361.22Z" transform="translate(-676.7 1818.76)" fill="#fff"/>
    </g>
    <g transform="matrix(1, 0, 0, 1, -11711.75, 20244)" filter="url(#패스_999)">
      <path id="패스_999-2" data-name="패스 999" d="M1504.935,351.359c-4.409,0-7.991,4.039-7.991,9.01,0-4.971-3.566-9.01-7.974-9.01,4.409,0,7.974-4.021,7.974-8.992C1496.944,347.338,1500.526,351.359,1504.935,351.359Z" transform="translate(-746.15 1634.63)" fill="#fff"/>
    </g>
    <g transform="matrix(1, 0, 0, 1, -11711.75, 20244)" filter="url(#패스_1000)">
      <path id="패스_1000-2" data-name="패스 1000" d="M1504.935,351.359c-4.409,0-7.991,4.039-7.991,9.01,0-4.971-3.566-9.01-7.974-9.01,4.409,0,7.974-4.021,7.974-8.992C1496.944,347.338,1500.526,351.359,1504.935,351.359Z" transform="translate(-340.22 1778.63)" fill="#fff"/>
    </g>
    <g transform="matrix(1, 0, 0, 1, -11711.75, 20244)" filter="url(#패스_1005)">
      <path id="패스_1005-2" data-name="패스 1005" d="M1504.935,351.359c-4.409,0-7.991,4.039-7.991,9.01,0-4.971-3.566-9.01-7.974-9.01,4.409,0,7.974-4.021,7.974-8.992C1496.944,347.338,1500.526,351.359,1504.935,351.359Z" transform="translate(109.78 2213.63)" fill="#fff"/>
    </g>
    <g transform="matrix(1, 0, 0, 1, -11711.75, 20244)" filter="url(#패스_1009)">
      <path id="패스_1009-2" data-name="패스 1009" d="M1506.133,352.034c-4.74,0-8.59,4.342-8.59,9.686,0-5.344-3.833-9.686-8.573-9.686,4.739,0,8.573-4.322,8.573-9.667C1497.543,347.711,1501.393,352.034,1506.133,352.034Z" transform="translate(-1057.82 2349.96)" fill="#fff"/>
    </g>
    <g transform="matrix(1, 0, 0, 1, -11711.75, 20244)" filter="url(#패스_1001)">
      <path id="패스_1001-2" data-name="패스 1001" d="M1500.443,348.829c-3.168,0-5.743,2.9-5.743,6.475,0-3.573-2.563-6.475-5.731-6.475,3.168,0,5.731-2.89,5.731-6.462C1494.7,345.94,1497.275,348.829,1500.443,348.829Z" transform="translate(-846.22 1736.16)" fill="#fff"/>
    </g>
    <g transform="matrix(1, 0, 0, 1, -11711.75, 20244)" filter="url(#패스_1008)">
      <path id="패스_1008-2" data-name="패스 1008" d="M1500.443,348.829c-3.168,0-5.743,2.9-5.743,6.475,0-3.573-2.563-6.475-5.731-6.475,3.168,0,5.731-2.89,5.731-6.462C1494.7,345.94,1497.275,348.829,1500.443,348.829Z" transform="translate(61.78 2296.51)" fill="#fff"/>
    </g>
    <g transform="matrix(1, 0, 0, 1, -11711.75, 20244)" filter="url(#패스_1006)">
      <path id="패스_1006-2" data-name="패스 1006" d="M1500.443,348.829c-3.168,0-5.743,2.9-5.743,6.475,0-3.573-2.563-6.475-5.731-6.475,3.168,0,5.731-2.89,5.731-6.462C1494.7,345.94,1497.275,348.829,1500.443,348.829Z" transform="translate(-1025.22 2267.63)" fill="#fff"/>
    </g>
    <g transform="matrix(1, 0, 0, 1, -11711.75, 20244)" filter="url(#패스_997)">
      <path id="패스_997-2" data-name="패스 997" d="M1501.613,349.488c-3.491,0-6.328,3.2-6.328,7.135,0-3.937-2.824-7.135-6.315-7.135,3.491,0,6.315-3.184,6.315-7.121C1495.285,346.3,1498.121,349.488,1501.613,349.488Z" transform="translate(133.72 1409.63)" fill="#fff"/>
    </g>
    <g transform="matrix(1, 0, 0, 1, -11711.75, 20244)" filter="url(#패스_1015)">
      <path id="패스_1015-2" data-name="패스 1015" d="M1488.97,349.488c3.491,0,6.328,3.2,6.328,7.135,0-3.937,2.824-7.135,6.315-7.135-3.491,0-6.315-3.184-6.315-7.121C1495.3,346.3,1492.461,349.488,1488.97,349.488Z" transform="translate(-1458.97 601.63)" fill="#fff"/>
    </g>
  </g>
</svg>
